<?xml version="1.0" encoding="utf-8"?>
<svg version="1.1" xmlns:xlink="http://www.w3.org/1999/xlink" width="12px" height="12px" viewBox="1191 535  12 12" xmlns="http://www.w3.org/2000/svg">
  <path d="M 1197 536  C 1199.8 536  1202 538.2  1202 541  C 1202 543.8  1199.8 546  1197 546  C 1194.2 546  1192 543.8  1192 541  C 1192 538.2  1194.2 536  1197 536  Z " fill-rule="nonzero" fill="#ffffff" stroke="none" />
  <path d="M 1197 536  C 1199.8 536  1202 538.2  1202 541  C 1202 543.8  1199.8 546  1197 546  C 1194.2 546  1192 543.8  1192 541  C 1192 538.2  1194.2 536  1197 536  Z " stroke-width="2" stroke="#797979" fill="none" />
  <path d="M 1197 544  C 1195.32 544  1194 542.68  1194 541  C 1194 539.32  1195.32 538  1197 538  C 1198.68 538  1200 539.32  1200 541  C 1200 542.68  1198.68 544  1197 544  " fill-rule="nonzero" fill="#797979" stroke="none" />
</svg>