<?xml version="1.0" encoding="utf-8"?>
<svg version="1.1" xmlns:xlink="http://www.w3.org/1999/xlink" width="12px" height="12px" viewBox="1267 535  12 12" xmlns="http://www.w3.org/2000/svg">
  <path d="M 1273 536  C 1275.8 536  1278 538.2  1278 541  C 1278 543.8  1275.8 546  1273 546  C 1270.2 546  1268 543.8  1268 541  C 1268 538.2  1270.2 536  1273 536  Z " fill-rule="nonzero" fill="#ffffff" stroke="none" />
  <path d="M 1273 536  C 1275.8 536  1278 538.2  1278 541  C 1278 543.8  1275.8 546  1273 546  C 1270.2 546  1268 543.8  1268 541  C 1268 538.2  1270.2 536  1273 536  Z " stroke-width="2" stroke="#797979" fill="none" />
  <path d="M 1273 544  C 1271.32 544  1270 542.68  1270 541  C 1270 539.32  1271.32 538  1273 538  C 1274.68 538  1276 539.32  1276 541  C 1276 542.68  1274.68 544  1273 544  " fill-rule="nonzero" fill="#797979" stroke="none" />
</svg>